<?xml version="1.0" encoding="UTF-8"?>
<svg id="Layer_1" xmlns="http://www.w3.org/2000/svg" viewBox="0 0 51.16 11.92">
  <defs>
    <style>
      .cls-1 {
        fill: #e6123d;
      }
    </style>
  </defs>
  <path class="cls-1" d="M15.42,2.97h-5.54l3.23-1.36L11.67.02l-7.01,2.95v2.12h10.76c.54,0,.99.33.99.73s-.45.74-.99.74H3.84c-.55,0-.99-.33-.99-.74v-2.82l-2.85.53v2.29c0,1.58,1.72,2.86,3.84,2.86h11.57c2.12,0,3.85-1.28,3.85-2.86s-1.73-2.85-3.85-2.85Z"/>
  <rect class="cls-1" x="28.19" y=".18" width="4.55" height="1.61"/>
  <path class="cls-1" d="M44,3.54v2.34c0,.39-.42.69-.92.69s-.91-.3-.91-.69v-2.31h-2.85v2.31c0,.39-.4.69-.91.69s-.91-.3-.91-.69v-2.31h-2.86v2.26c0,.41-.44.74-.98.74-.54,0-.98-.33-.98-.74v-2.82l-2.85.53v2.29c0,.41-.46.74-1,.74h-.8v-3.59h-3.86c-2.11,0-3.83,1.29-3.83,2.87,0,1.71,2.06,2.84,3.45,2.84h.34l-3,1.47,1.58,1.77,5.32-2.63v-.61h.8c.93,0,1.77-.25,2.42-.66.63.4,1.46.64,2.36.65h0s.05,0,.05,0c0,0,0,0,0,0s0,0,0,0h0c.9,0,1.73-.24,2.38-.63.62.37,1.48.63,2.36.63s1.71-.23,2.35-.62c.63.36,1.45.62,2.33.62,2.07,0,3.76-1.26,3.76-2.81v-2.86l-2.84.52ZM25.18,6.56h-1.01c-.54,0-.98-.33-.98-.74s.44-.73.98-.73h1.01v1.48Z"/>
  <polygon class="cls-1" points="48.31 .53 48.31 8.68 51.16 8.68 51.16 0 48.31 .53"/>
</svg>